<svg width="60" height="59" viewBox="0 0 60 59" fill="none" xmlns="http://www.w3.org/2000/svg">
<circle cx="30" cy="29.5" r="29.5" fill="#E6EDF7"/>
<path d="M34.9499 27.85C34.9499 29.1628 34.4284 30.4218 33.5001 31.3501C32.5718 32.2784 31.3128 32.8 29.9999 32.8C28.6871 32.8 27.4281 32.2784 26.4998 31.3501C25.5715 30.4218 25.0499 29.1628 25.0499 27.85C25.0499 26.5371 25.5715 25.2781 26.4998 24.3498C27.4281 23.4215 28.6871 22.9 29.9999 22.9C31.3128 22.9 32.5718 23.4215 33.5001 24.3498C34.4284 25.2781 34.9499 26.5371 34.9499 27.85ZM33.2999 27.85C33.2999 26.9747 32.9523 26.1354 32.3334 25.5165C31.7145 24.8976 30.8751 24.55 29.9999 24.55C29.1247 24.55 28.2854 24.8976 27.6665 25.5165C27.0476 26.1354 26.6999 26.9747 26.6999 27.85C26.6999 28.7252 27.0476 29.5645 27.6665 30.1834C28.2854 30.8023 29.1247 31.15 29.9999 31.15C30.8751 31.15 31.7145 30.8023 32.3334 30.1834C32.9523 29.5645 33.2999 28.7252 33.2999 27.85ZM38.1674 36.0257C40.3337 33.8583 41.5507 30.9193 41.5507 27.8549C41.5507 24.7905 40.3337 21.8515 38.1674 19.6841C37.0949 18.6115 35.8216 17.7606 34.4202 17.1801C33.0188 16.5996 31.5168 16.3008 29.9999 16.3008C28.4831 16.3008 26.9811 16.5996 25.5797 17.1801C24.1783 17.7606 22.905 18.6115 21.8324 19.6841C19.6661 21.8515 18.4492 24.7905 18.4492 27.8549C18.4492 30.9193 19.6661 33.8583 21.8324 36.0257L24.3421 38.4991L27.713 41.7743L27.9325 41.969C29.2112 43.0052 31.084 42.9392 32.2885 41.7743L36.3062 37.8638L38.1674 36.0257ZM22.9957 20.8474C23.9151 19.9269 25.007 19.1967 26.2088 18.6985C27.4107 18.2003 28.6989 17.9438 29.9999 17.9438C31.3009 17.9438 32.5892 18.2003 33.791 18.6985C34.9929 19.1967 36.0847 19.9269 37.0042 20.8474C38.8097 22.6553 39.8477 25.0903 39.9018 27.6448C39.956 30.1993 39.022 32.6761 37.2946 34.5589L37.0042 34.8625L34.8245 37.0141L31.145 40.5929L30.9899 40.7249C30.7041 40.9389 30.3567 41.0544 29.9997 41.0541C29.6426 41.0538 29.2954 40.9377 29.0099 40.7233L28.8565 40.5913L23.9395 35.798L22.9957 34.8625L22.7053 34.5605C20.9779 32.6778 20.0439 30.201 20.098 27.6465C20.1521 25.092 21.1902 22.6553 22.9957 20.8474Z" fill="#2E6EFF"/>
</svg>
