<svg width="103" height="103" viewBox="0 0 103 103" fill="none" xmlns="http://www.w3.org/2000/svg">
<circle cx="51.5" cy="51.5" r="51" fill="#F4F7FF" stroke="#2E6EFF"/>
<path d="M62.8709 65.9957H66.7905C67.1353 66.0011 67.4763 65.9229 67.7843 65.7679C68.0923 65.6129 68.3582 65.3856 68.5592 65.1054C68.7603 64.8253 68.8905 64.5006 68.9388 64.1592C68.9871 63.8178 68.952 63.4697 68.8365 63.1448C67.8369 61.0057 66.2546 59.1916 64.271 57.9108C62.2874 56.6299 59.983 55.9341 57.622 55.9032M57.622 50.845C58.5043 50.8452 59.378 50.6717 60.1932 50.3342C61.0084 49.9967 61.7491 49.502 62.3731 48.8782C62.997 48.2544 63.492 47.5138 63.8297 46.6987C64.1674 45.8836 64.3412 45.01 64.3412 44.1277C64.3436 43.2438 64.1716 42.3682 63.835 41.551C63.4984 40.7338 63.0038 39.991 62.3796 39.3653C61.7554 38.7396 61.0138 38.2432 60.1974 37.9046C59.3811 37.5659 58.5059 37.3918 57.622 37.392M47.1262 51.0558C49.1461 51.051 51.0815 50.2451 52.5079 48.8149C53.9342 47.3848 54.735 45.4472 54.7345 43.4273C54.7345 41.409 53.9327 39.4733 52.5056 38.0461C51.0784 36.619 49.1427 35.8172 47.1244 35.8172C45.106 35.8172 43.1703 36.619 41.7432 38.0461C40.316 39.4733 39.5142 41.409 39.5142 43.4273C39.5142 45.4472 40.3154 47.3846 41.7422 48.8144C43.1689 50.2442 45.1045 51.0496 47.1244 51.054M55.7154 68.1828C56.3611 68.182 56.9941 68.0023 57.544 67.6639C58.094 67.3254 58.5395 66.8413 58.8313 66.2652C59.123 65.6891 59.2496 65.0435 59.197 64.3999C59.1444 63.7562 58.9146 63.1397 58.5332 62.6187C57.1973 60.8445 55.4771 59.3957 53.5016 58.381C51.5261 57.3662 49.3465 56.8118 47.1262 56.7593C44.9058 56.812 42.7261 57.3667 40.7505 58.3818C38.775 59.3969 37.0549 60.846 35.7192 62.6205C35.3391 63.1416 35.1103 63.7577 35.0583 64.4006C35.0062 65.0435 35.1329 65.6883 35.4242 66.2638C35.7156 66.8393 36.1603 67.3231 36.7093 67.6617C37.2583 68.0004 37.8902 68.1807 38.5352 68.1828H55.7154Z" stroke="#2E6EFF" stroke-width="2.75" stroke-linecap="round" stroke-linejoin="round"/>
</svg>
