<svg width="103" height="103" viewBox="0 0 103 103" fill="none" xmlns="http://www.w3.org/2000/svg">
<circle cx="51.5" cy="51.5" r="51" fill="#F4F7FF" stroke="#2E6EFF"/>
<path d="M81.7247 47.5655L75.5417 35.214C75.3711 34.8725 75.1349 34.568 74.8466 34.3179C74.5583 34.0677 74.2235 33.8768 73.8615 33.7561C73.4994 33.6353 73.117 33.587 72.7363 33.614C72.3556 33.641 71.9839 33.7428 71.6425 33.9134L65.2923 37.0764L52.2432 33.6276C52.0845 33.5855 51.9176 33.5855 51.7589 33.6276L38.7098 37.0764L32.3597 33.9013C32.0182 33.7307 31.6465 33.6289 31.2658 33.6019C30.8851 33.5749 30.5027 33.6232 30.1407 33.7439C29.7786 33.8647 29.4438 34.0556 29.1555 34.3058C28.8672 34.5559 28.631 34.8604 28.4604 35.2019L22.2774 47.5655C22.1067 47.907 22.005 48.2786 21.978 48.6594C21.951 49.0401 21.9992 49.4224 22.12 49.7845C22.2408 50.1466 22.4317 50.4814 22.6818 50.7697C22.932 51.058 23.2365 51.2941 23.5779 51.4648L30.1872 54.7706L43.6892 64.4145C43.7875 64.4851 43.8985 64.536 44.0161 64.5647L59.5161 68.4397C59.6774 68.4819 59.8469 68.4818 60.0081 68.4394C60.1693 68.3969 60.3169 68.3136 60.4365 68.1975L73.8875 54.7464L80.4266 51.4769C80.768 51.3063 81.0725 51.0701 81.3227 50.7818C81.5728 50.4935 81.7638 50.1587 81.8845 49.7966C82.0053 49.4346 82.0536 49.0522 82.0266 48.6715C81.9996 48.2908 81.8978 47.9191 81.7272 47.5776L81.7247 47.5655ZM69.3732 56.5144L60.3638 49.2972C60.1773 49.1475 59.942 49.0722 59.7032 49.0856C59.4645 49.099 59.2391 49.2002 59.0705 49.3698C54.3503 54.1264 49.0585 53.5137 45.68 51.3558C45.5556 51.276 45.4508 51.1693 45.3732 51.0435C45.2957 50.9177 45.2474 50.7762 45.2319 50.6292C45.2154 50.4877 45.231 50.3444 45.2775 50.2098C45.3241 50.0752 45.4004 49.9528 45.5007 49.8518L56.2684 39.4062H64.9654L72.1341 53.7462L69.3732 56.5144ZM23.9582 49.1712C23.8807 48.9313 23.8998 48.6707 24.0115 48.4447L30.2042 36.0689C30.2836 35.909 30.4058 35.7741 30.5571 35.6792C30.7084 35.5843 30.883 35.5331 31.0615 35.5312C31.2113 35.5322 31.3589 35.5678 31.4926 35.6354L37.3051 38.5416L30.255 52.6394L24.4425 49.7331C24.3289 49.6759 24.2276 49.5968 24.1444 49.5004C24.0613 49.404 23.998 49.2921 23.9582 49.1712ZM59.4532 66.4271L44.6652 62.7289L31.9261 53.6299L39.2741 38.9219L52.0011 35.5651L59.1989 37.4687H55.8761C55.6238 37.4685 55.3814 37.5667 55.2004 37.7424L44.1324 48.4786C43.8244 48.7866 43.5895 49.1599 43.4452 49.571C43.301 49.982 43.2509 50.4202 43.2988 50.8532C43.3467 51.2861 43.4913 51.7028 43.722 52.0724C43.9526 52.4419 44.2634 52.7549 44.6313 52.9881C49.446 56.0663 55.319 55.41 59.8068 51.3388L67.9854 57.8924L59.4532 66.4271ZM80.0391 49.1712C79.9992 49.2921 79.9359 49.404 79.8528 49.5004C79.7697 49.5968 79.6684 49.6759 79.5547 49.7331L73.7422 52.6394L66.697 38.5416L72.5095 35.6354C72.7382 35.524 73.0015 35.5071 73.2425 35.5882C73.4836 35.6693 73.6831 35.842 73.7979 36.0689L79.981 48.4326C80.0991 48.6607 80.1217 48.9264 80.0439 49.1712H80.0391ZM51.9865 73.5547C51.9328 73.7629 51.8112 73.9473 51.6411 74.0789C51.471 74.2104 51.2619 74.2816 51.0468 74.2812C50.9652 74.2818 50.8838 74.272 50.8047 74.2522L40.7103 71.7262C40.592 71.6972 40.4803 71.6463 40.3809 71.576L34.0017 67.0156C33.7926 66.8663 33.6514 66.64 33.6092 66.3866C33.5669 66.1331 33.6271 65.8733 33.7765 65.6642C33.9258 65.4551 34.1521 65.3139 34.4055 65.2717C34.6589 65.2295 34.9188 65.2896 35.1279 65.439L41.3569 69.888L51.2866 72.3704C51.4106 72.4017 51.5272 72.4573 51.6296 72.5339C51.732 72.6105 51.8182 72.7066 51.8833 72.8167C51.9483 72.9268 51.991 73.0487 52.0087 73.1754C52.0264 73.302 52.0189 73.4309 51.9865 73.5547Z" fill="#2E6EFF"/>
</svg>
