<svg width="103" height="103" viewBox="0 0 103 103" fill="none" xmlns="http://www.w3.org/2000/svg">
<circle cx="51.5" cy="51.5" r="51" fill="#F4F7FF" stroke="#2E6EFF"/>
<g clip-path="url(#clip0_109_915)">
<path d="M51.8449 50.9111C56.0449 50.9111 59.3115 47.4889 59.3115 43.2889C59.3115 39.0889 55.8893 35.8222 51.6893 35.8222C47.4893 35.8222 44.2227 39.2445 44.2227 43.2889C44.2227 47.4889 47.6449 50.9111 51.8449 50.9111ZM51.6893 38.9333C51.8449 38.9333 51.8449 38.9333 51.6893 38.9333C54.1782 38.9333 56.2004 40.9556 56.2004 43.4445C56.2004 45.9333 54.1782 47.8 51.6893 47.8C49.2004 47.8 47.3338 45.7778 47.3338 43.4445C47.3338 40.9556 49.356 38.9333 51.6893 38.9333Z" fill="#2E6EFF"/>
<path d="M74.8673 49.9778C71.9118 47.3333 68.0229 45.9333 63.9784 46.0889H62.734C62.4229 47.3333 61.9562 48.4222 61.334 49.3556C62.2673 49.2 63.0451 49.2 63.9784 49.2C66.934 49.0444 69.8895 49.9778 72.2229 51.6889V62.8889H75.334V50.4444L74.8673 49.9778Z" fill="#2E6EFF"/>
<path d="M60.4004 36.1333C61.1782 34.2667 63.356 33.3333 65.3782 34.1111C67.2449 34.8889 68.1782 37.0667 67.4004 39.0889C66.7782 40.4889 65.3782 41.4222 63.9782 41.4222C63.6671 41.4222 63.2004 41.4222 62.8893 41.2667C63.0449 42.0445 63.0449 42.8222 63.0449 43.4445V44.3778C63.356 44.3778 63.6671 44.5333 63.9782 44.5333C67.8671 44.5333 70.9782 41.4222 70.9782 37.6889C70.9782 33.8 67.8671 30.6889 64.1338 30.6889C61.6449 30.6889 59.4671 31.9333 58.2227 34.1111C59.0004 34.5778 59.7782 35.2 60.4004 36.1333Z" fill="#2E6EFF"/>
<path d="M42.666 49.5111C42.0438 48.5778 41.5771 47.4889 41.266 46.2445H40.0216C35.9771 46.0889 32.0882 47.4889 29.1327 49.9778L28.666 50.4445V62.8889H31.7771V51.6889C34.266 49.9778 37.066 49.0445 40.0216 49.2C40.9549 49.2 41.8882 49.3556 42.666 49.5111Z" fill="#2E6EFF"/>
<path d="M40.0214 44.3778C40.3325 44.3778 40.6437 44.3778 40.9548 44.2222V43.2889C40.9548 42.5111 40.9548 41.7333 41.1103 41.1111C40.7992 41.2667 40.3325 41.2667 40.0214 41.2667C37.9992 41.2667 36.2881 39.5556 36.2881 37.5333C36.2881 35.5111 37.9992 33.8 40.0214 33.8C41.577 33.8 42.977 34.7333 43.5992 36.1333C44.2214 35.3556 45.1548 34.5778 45.9325 33.9556C43.9103 30.6889 39.7103 29.6 36.4437 31.6222C33.177 33.6444 32.0881 37.8444 34.1103 41.1111C35.3548 43.1333 37.5325 44.3778 40.0214 44.3778Z" fill="#2E6EFF"/>
<path d="M64.6011 59.3111L64.29 58.8445C61.1789 55.4222 56.8233 53.4 52.1566 53.5556C47.49 53.4 42.9789 55.4222 39.8678 58.8445L39.5566 59.3111V71.1334C39.5566 72.5334 40.6455 73.7778 42.2011 73.7778H62.1122C63.5122 73.7778 64.7566 72.5334 64.7566 71.1334V59.3111H64.6011ZM61.49 70.6667H42.6678V60.4C45.1566 57.9111 48.5789 56.6667 52.1566 56.6667C55.5789 56.5111 59.0011 57.9111 61.49 60.4V70.6667Z" fill="#2E6EFF"/>
</g>
<defs>
<clipPath id="clip0_109_915">
<rect width="56" height="56" fill="white" transform="translate(24 24)"/>
</clipPath>
</defs>
</svg>
