<svg width="103" height="103" viewBox="0 0 103 103" fill="none" xmlns="http://www.w3.org/2000/svg">
<circle cx="51.5" cy="51.5" r="51" fill="#F4F7FF" stroke="#2E6EFF"/>
<path d="M75.625 69.7188H73.0938V40.1875C73.0938 39.9637 73.0049 39.7491 72.8466 39.5909C72.6884 39.4326 72.4738 39.3438 72.25 39.3438H62.9688V33.4375C62.9688 33.2137 62.8799 32.9991 62.7216 32.8409C62.5634 32.6826 62.3488 32.5938 62.125 32.5938H41.875C41.6512 32.5938 41.4366 32.6826 41.2784 32.8409C41.1201 32.9991 41.0312 33.2137 41.0312 33.4375V46.0938H31.75C31.5262 46.0938 31.3116 46.1826 31.1534 46.3409C30.9951 46.4991 30.9062 46.7137 30.9062 46.9375V69.7188H28.375C28.1512 69.7188 27.9366 69.8076 27.7784 69.9659C27.6201 70.1241 27.5312 70.3387 27.5312 70.5625C27.5312 70.7863 27.6201 71.0009 27.7784 71.1591C27.9366 71.3174 28.1512 71.4062 28.375 71.4062H75.625C75.8488 71.4062 76.0634 71.3174 76.2216 71.1591C76.3799 71.0009 76.4688 70.7863 76.4688 70.5625C76.4688 70.3387 76.3799 70.1241 76.2216 69.9659C76.0634 69.8076 75.8488 69.7188 75.625 69.7188ZM32.5938 47.7812H41.875C42.0988 47.7812 42.3134 47.6924 42.4716 47.5341C42.6299 47.3759 42.7188 47.1613 42.7188 46.9375V34.2812H61.2812V40.1875C61.2812 40.4113 61.3701 40.6259 61.5284 40.7841C61.6866 40.9424 61.9012 41.0312 62.125 41.0312H71.4062V69.7188H56.2188V60.4375C56.2188 60.2137 56.1299 59.9991 55.9716 59.8409C55.8134 59.6826 55.5988 59.5938 55.375 59.5938H48.625C48.4012 59.5938 48.1866 59.6826 48.0284 59.8409C47.8701 59.9991 47.7812 60.2137 47.7812 60.4375V69.7188H32.5938V47.7812ZM54.5312 69.7188H49.4688V61.2812H54.5312V69.7188ZM49.4688 40.1875C49.4688 39.9637 49.5576 39.7491 49.7159 39.5909C49.8741 39.4326 50.0887 39.3438 50.3125 39.3438H53.6875C53.9113 39.3438 54.1259 39.4326 54.2841 39.5909C54.4424 39.7491 54.5312 39.9637 54.5312 40.1875C54.5312 40.4113 54.4424 40.6259 54.2841 40.7841C54.1259 40.9424 53.9113 41.0312 53.6875 41.0312H50.3125C50.0887 41.0312 49.8741 40.9424 49.7159 40.7841C49.5576 40.6259 49.4688 40.4113 49.4688 40.1875ZM49.4688 46.9375C49.4688 46.7137 49.5576 46.4991 49.7159 46.3409C49.8741 46.1826 50.0887 46.0938 50.3125 46.0938H53.6875C53.9113 46.0938 54.1259 46.1826 54.2841 46.3409C54.4424 46.4991 54.5312 46.7137 54.5312 46.9375C54.5312 47.1613 54.4424 47.3759 54.2841 47.5341C54.1259 47.6924 53.9113 47.7812 53.6875 47.7812H50.3125C50.0887 47.7812 49.8741 47.6924 49.7159 47.5341C49.5576 47.3759 49.4688 47.1613 49.4688 46.9375ZM61.2812 46.9375C61.2812 46.7137 61.3701 46.4991 61.5284 46.3409C61.6866 46.1826 61.9012 46.0938 62.125 46.0938H65.5C65.7238 46.0938 65.9384 46.1826 66.0966 46.3409C66.2549 46.4991 66.3438 46.7137 66.3438 46.9375C66.3438 47.1613 66.2549 47.3759 66.0966 47.5341C65.9384 47.6924 65.7238 47.7812 65.5 47.7812H62.125C61.9012 47.7812 61.6866 47.6924 61.5284 47.5341C61.3701 47.3759 61.2812 47.1613 61.2812 46.9375ZM42.7188 53.6875C42.7188 53.9113 42.6299 54.1259 42.4716 54.2841C42.3134 54.4424 42.0988 54.5312 41.875 54.5312H38.5C38.2762 54.5312 38.0616 54.4424 37.9034 54.2841C37.7451 54.1259 37.6562 53.9113 37.6562 53.6875C37.6562 53.4637 37.7451 53.2491 37.9034 53.0909C38.0616 52.9326 38.2762 52.8438 38.5 52.8438H41.875C42.0988 52.8438 42.3134 52.9326 42.4716 53.0909C42.6299 53.2491 42.7188 53.4637 42.7188 53.6875ZM42.7188 60.4375C42.7188 60.6613 42.6299 60.8759 42.4716 61.0341C42.3134 61.1924 42.0988 61.2812 41.875 61.2812H38.5C38.2762 61.2812 38.0616 61.1924 37.9034 61.0341C37.7451 60.8759 37.6562 60.6613 37.6562 60.4375C37.6562 60.2137 37.7451 59.9991 37.9034 59.8409C38.0616 59.6826 38.2762 59.5938 38.5 59.5938H41.875C42.0988 59.5938 42.3134 59.6826 42.4716 59.8409C42.6299 59.9991 42.7188 60.2137 42.7188 60.4375ZM49.4688 53.6875C49.4688 53.4637 49.5576 53.2491 49.7159 53.0909C49.8741 52.9326 50.0887 52.8438 50.3125 52.8438H53.6875C53.9113 52.8438 54.1259 52.9326 54.2841 53.0909C54.4424 53.2491 54.5312 53.4637 54.5312 53.6875C54.5312 53.9113 54.4424 54.1259 54.2841 54.2841C54.1259 54.4424 53.9113 54.5312 53.6875 54.5312H50.3125C50.0887 54.5312 49.8741 54.4424 49.7159 54.2841C49.5576 54.1259 49.4688 53.9113 49.4688 53.6875ZM61.2812 53.6875C61.2812 53.4637 61.3701 53.2491 61.5284 53.0909C61.6866 52.9326 61.9012 52.8438 62.125 52.8438H65.5C65.7238 52.8438 65.9384 52.9326 66.0966 53.0909C66.2549 53.2491 66.3438 53.4637 66.3438 53.6875C66.3438 53.9113 66.2549 54.1259 66.0966 54.2841C65.9384 54.4424 65.7238 54.5312 65.5 54.5312H62.125C61.9012 54.5312 61.6866 54.4424 61.5284 54.2841C61.3701 54.1259 61.2812 53.9113 61.2812 53.6875ZM61.2812 60.4375C61.2812 60.2137 61.3701 59.9991 61.5284 59.8409C61.6866 59.6826 61.9012 59.5938 62.125 59.5938H65.5C65.7238 59.5938 65.9384 59.6826 66.0966 59.8409C66.2549 59.9991 66.3438 60.2137 66.3438 60.4375C66.3438 60.6613 66.2549 60.8759 66.0966 61.0341C65.9384 61.1924 65.7238 61.2812 65.5 61.2812H62.125C61.9012 61.2812 61.6866 61.1924 61.5284 61.0341C61.3701 60.8759 61.2812 60.6613 61.2812 60.4375Z" fill="#2E6EFF"/>
</svg>
