<svg width="60" height="59" viewBox="0 0 60 59" fill="none" xmlns="http://www.w3.org/2000/svg">
<circle cx="30" cy="29.5" r="29.5" fill="#E6EDF7"/>
<g clip-path="url(#clip0_128_1161)">
<path fill-rule="evenodd" clip-rule="evenodd" d="M41.7937 22.9865L31.5351 31.482C31.2436 31.7235 30.8769 31.8557 30.4984 31.8557C30.1198 31.8557 29.7531 31.7235 29.4616 31.482L19.2079 22.9865C19.1529 23.1521 19.1249 23.3255 19.125 23.5V36.5C19.125 36.931 19.2962 37.3443 19.601 37.649C19.9057 37.9538 20.319 38.125 20.75 38.125H40.25C40.681 38.125 41.0943 37.9538 41.399 37.649C41.7038 37.3443 41.875 36.931 41.875 36.5V23.5C41.8757 23.3256 41.8482 23.1522 41.7937 22.9865ZM20.75 20.25H40.25C41.112 20.25 41.9386 20.5924 42.5481 21.2019C43.1576 21.8114 43.5 22.638 43.5 23.5V36.5C43.5 37.362 43.1576 38.1886 42.5481 38.7981C41.9386 39.4076 41.112 39.75 40.25 39.75H20.75C19.888 39.75 19.0614 39.4076 18.4519 38.7981C17.8424 38.1886 17.5 37.362 17.5 36.5V23.5C17.5 22.638 17.8424 21.8114 18.4519 21.2019C19.0614 20.5924 19.888 20.25 20.75 20.25ZM20.4088 21.875L29.4698 29.3549C29.76 29.5946 30.1244 29.7261 30.5008 29.727C30.8771 29.7279 31.2422 29.5981 31.5335 29.3597L40.6855 21.875H20.4088Z" fill="#2E6EFF"/>
</g>
<defs>
<clipPath id="clip0_128_1161">
<rect width="26" height="26" fill="white" transform="translate(17.5 17)"/>
</clipPath>
</defs>
</svg>
