<svg width="25" height="25" viewBox="0 0 25 25" fill="none" xmlns="http://www.w3.org/2000/svg">
<circle cx="12.5" cy="12.5" r="12.5" fill="#EDEDED"/>
<path fill-rule="evenodd" clip-rule="evenodd" d="M18.2125 9.763L13.4777 13.684C13.3432 13.7955 13.174 13.8565 12.9992 13.8565C12.8245 13.8565 12.6553 13.7955 12.5208 13.684L7.78825 9.763C7.76286 9.83943 7.74994 9.91946 7.75 10V16C7.75 16.1989 7.82902 16.3897 7.96967 16.5303C8.11032 16.671 8.30109 16.75 8.5 16.75H17.5C17.6989 16.75 17.8897 16.671 18.0303 16.5303C18.171 16.3897 18.25 16.1989 18.25 16V10C18.2503 9.9195 18.2376 9.83948 18.2125 9.763ZM8.5 8.5H17.5C17.8978 8.5 18.2794 8.65804 18.5607 8.93934C18.842 9.22064 19 9.60218 19 10V16C19 16.3978 18.842 16.7794 18.5607 17.0607C18.2794 17.342 17.8978 17.5 17.5 17.5H8.5C8.10218 17.5 7.72064 17.342 7.43934 17.0607C7.15804 16.7794 7 16.3978 7 16V10C7 9.60218 7.15804 9.22064 7.43934 8.93934C7.72064 8.65804 8.10218 8.5 8.5 8.5ZM8.3425 9.25L12.5245 12.7023C12.6584 12.8129 12.8266 12.8736 13.0003 12.874C13.1741 12.8744 13.3425 12.8145 13.477 12.7045L17.701 9.25H8.3425Z" fill="#9B9B9B"/>
</svg>
