<svg width="44" height="44" viewBox="0 0 44 44" fill="none" xmlns="http://www.w3.org/2000/svg">
<circle cx="21.7939" cy="21.7939" r="21.7939" fill="#2E6EFF"/>
<path d="M27.2424 12.5318C27.2424 12.3873 27.185 12.2487 27.0828 12.1465C26.9806 12.0443 26.8421 11.9869 26.6976 11.9869H23.9733C22.6015 11.9186 21.2584 12.396 20.2375 13.3148C19.2166 14.2336 18.6009 15.5192 18.5248 16.8906V19.8327H15.8006C15.6561 19.8327 15.5175 19.8901 15.4153 19.9923C15.3131 20.0945 15.2557 20.2331 15.2557 20.3776V23.2108C15.2557 23.3553 15.3131 23.4939 15.4153 23.5961C15.5175 23.6982 15.6561 23.7556 15.8006 23.7556H18.5248V31.0566C18.5248 31.2011 18.5822 31.3397 18.6844 31.4419C18.7866 31.5441 18.9252 31.6015 19.0697 31.6015H22.3388C22.4833 31.6015 22.6219 31.5441 22.724 31.4419C22.8262 31.3397 22.8836 31.2011 22.8836 31.0566V23.7556H25.7386C25.8598 23.7574 25.9781 23.7187 26.0748 23.6457C26.1715 23.5726 26.2411 23.4695 26.2726 23.3525L27.0572 20.5192C27.0788 20.4387 27.0818 20.3543 27.0657 20.2725C27.0496 20.1907 27.015 20.1137 26.9644 20.0474C26.9139 19.9811 26.8488 19.9272 26.7742 19.89C26.6996 19.8528 26.6175 19.8332 26.5341 19.8327H22.8836V16.8906C22.9107 16.6208 23.0374 16.3709 23.2389 16.1895C23.4404 16.0082 23.7022 15.9085 23.9733 15.9098H26.6976C26.8421 15.9098 26.9806 15.8524 27.0828 15.7502C27.185 15.6481 27.2424 15.5095 27.2424 15.365V12.5318Z" fill="white"/>
</svg>
