<svg width="816" height="739" viewBox="0 0 816 739" fill="none" xmlns="http://www.w3.org/2000/svg">
<path d="M503.786 548.107C415.856 449.695 411.828 317.363 420.805 263.499L118 226.376L344.376 420.725L307.5 656L454.289 524.814L503.786 548.107Z" fill="#F7BE19"/>
<path d="M592.589 0C559.349 50.7102 504.223 168.29 549.643 232.927C564.07 246.001 629.721 252.123 779.516 181.95C791.927 175.178 803.98 169.355 815.326 164.505C802.889 170.786 790.957 176.59 779.516 181.95C656.57 249.029 498.418 409.143 642.814 637.638C517.131 536.218 331.128 266.702 592.589 0Z" fill="#DFAF24"/>
<circle cx="602.78" cy="173.968" r="47.3134" fill="#DFAF24"/>
<circle cx="375.676" cy="191.437" r="53.1365" fill="#F7BE19"/>
<path fill-rule="evenodd" clip-rule="evenodd" d="M263.864 140.807C188.682 127.755 126.148 141.042 94.6593 183.636C32.8756 267.209 114.001 431.96 275.858 551.617C437.715 671.274 619.011 700.526 680.795 616.953C712.284 574.359 706.651 510.677 672.128 442.627C731.013 535.711 746.718 626.191 704.255 683.63C632.554 780.618 422.156 746.671 234.318 607.807C46.4807 468.943 -47.6665 277.747 24.0345 180.759C66.4977 123.32 157.606 111.804 263.864 140.807Z" fill="#2D6EFE"/>
</svg>
