<svg width="93" height="93" viewBox="0 0 93 93" fill="none" xmlns="http://www.w3.org/2000/svg">
<circle cx="46.5" cy="46.5" r="46.5" fill="#CFDEFF"/>
<path d="M35.125 35.1194V39.9944H57.875V35.1194H35.125ZM33.5 31.8694H59.5C60.3975 31.8694 61.125 32.5969 61.125 33.4944V41.6194C61.125 42.5169 60.3975 43.2444 59.5 43.2444H33.5C32.6025 43.2444 31.875 42.5169 31.875 41.6194V33.4944C31.875 32.5969 32.6025 31.8694 33.5 31.8694ZM36.75 46.4944H46.5C47.3975 46.4944 48.125 47.2219 48.125 48.1194V52.9944H49.75V62.7444H43.25V52.9944H44.875V49.7444H35.125C34.2275 49.7444 33.5 49.0169 33.5 48.1194V44.8694H36.75V46.4944ZM55.8148 49.3092L58.6875 46.4367L61.5602 49.3092C63.1467 50.8957 63.1467 53.4681 61.5602 55.0546C59.9737 56.641 57.4013 56.641 55.8148 55.0546C54.2283 53.4681 54.2283 50.8957 55.8148 49.3092Z" fill="#2E6EFF"/>
</svg>
