<svg width="45" height="44" viewBox="0 0 45 44" fill="none" xmlns="http://www.w3.org/2000/svg">
<circle cx="22.647" cy="21.7939" r="21.7939" fill="#2E6EFF"/>
<g clip-path="url(#clip0_30_445)">
<path d="M26.6888 17.118H27.9568M18.4467 13.314H26.0547C27.3999 13.314 28.69 13.8483 29.6412 14.7995C30.5924 15.7507 31.1268 17.0408 31.1268 18.386V25.9941C31.1268 27.3393 30.5924 28.6294 29.6412 29.5806C28.69 30.5318 27.3999 31.0661 26.0547 31.0661H18.4467C17.1015 31.0661 15.8114 30.5318 14.8602 29.5806C13.909 28.6294 13.3746 27.3393 13.3746 25.9941V18.386C13.3746 17.0408 13.909 15.7507 14.8602 14.7995C15.8114 13.8483 17.1015 13.314 18.4467 13.314ZM22.2507 25.9941C21.2418 25.9941 20.2743 25.5933 19.5609 24.8799C18.8475 24.1665 18.4467 23.1989 18.4467 22.19C18.4467 21.1812 18.8475 20.2136 19.5609 19.5002C20.2743 18.7868 21.2418 18.386 22.2507 18.386C23.2596 18.386 24.2272 18.7868 24.9406 19.5002C25.654 20.2136 26.0547 21.1812 26.0547 22.19C26.0547 23.1989 25.654 24.1665 24.9406 24.8799C24.2272 25.5933 23.2596 25.9941 22.2507 25.9941Z" stroke="white" stroke-width="1.26801"/>
</g>
<defs>
<clipPath id="clip0_30_445">
<rect width="19.0202" height="19.0202" fill="white" transform="translate(12.7406 12.6802)"/>
</clipPath>
</defs>
</svg>
