<svg width="45" height="44" viewBox="0 0 45 44" fill="none" xmlns="http://www.w3.org/2000/svg">
<circle cx="22.5" cy="21.7939" r="21.7939" fill="#2E6EFF"/>
<path d="M32.1043 22.987V29.8096H28.1489V23.4438C28.1489 21.8442 27.5766 20.7532 26.1453 20.7532C25.0525 20.7532 24.4015 21.4892 24.1158 22.2002C24.0114 22.4545 23.9846 22.8086 23.9846 23.1646V29.8096H20.0273C20.0273 29.8096 20.0809 19.0289 20.0273 17.911H23.9846V19.5975L23.9587 19.6363H23.9846V19.5975C24.5097 18.7885 25.4482 17.6318 27.5498 17.6318C30.1525 17.6318 32.1043 19.333 32.1043 22.987ZM15.8888 12.1758C14.5361 12.1758 13.6504 13.0634 13.6504 14.2311C13.6504 15.373 14.5103 16.2874 15.837 16.2874H15.8629C17.2434 16.2874 18.1005 15.373 18.1005 14.2311C18.0764 13.0634 17.2434 12.1758 15.8888 12.1758ZM13.8852 29.8096H17.8406V17.911H13.8852V29.8096Z" fill="white"/>
</svg>
