<svg width="33" height="34" viewBox="0 0 33 34" fill="none" xmlns="http://www.w3.org/2000/svg">
<path d="M21.4499 15.35C21.4499 16.6628 20.9284 17.9218 20.0001 18.8501C19.0718 19.7784 17.8128 20.3 16.4999 20.3C15.1871 20.3 13.9281 19.7784 12.9998 18.8501C12.0715 17.9218 11.5499 16.6628 11.5499 15.35C11.5499 14.0371 12.0715 12.7781 12.9998 11.8498C13.9281 10.9215 15.1871 10.4 16.4999 10.4C17.8128 10.4 19.0718 10.9215 20.0001 11.8498C20.9284 12.7781 21.4499 14.0371 21.4499 15.35ZM19.7999 15.35C19.7999 14.4747 19.4523 13.6354 18.8334 13.0165C18.2145 12.3976 17.3751 12.05 16.4999 12.05C15.6247 12.05 14.7854 12.3976 14.1665 13.0165C13.5476 13.6354 13.1999 14.4747 13.1999 15.35C13.1999 16.2252 13.5476 17.0645 14.1665 17.6834C14.7854 18.3023 15.6247 18.65 16.4999 18.65C17.3751 18.65 18.2145 18.3023 18.8334 17.6834C19.4523 17.0645 19.7999 16.2252 19.7999 15.35ZM24.6674 23.5257C26.8337 21.3583 28.0507 18.4193 28.0507 15.3549C28.0507 12.2905 26.8337 9.35153 24.6674 7.18411C23.5949 6.11147 22.3216 5.2606 20.9202 4.68009C19.5188 4.09957 18.0168 3.80078 16.4999 3.80078C14.9831 3.80078 13.4811 4.09957 12.0797 4.68009C10.6783 5.2606 9.40497 6.11147 8.33244 7.18411C6.16614 9.35153 4.94922 12.2905 4.94922 15.3549C4.94922 18.4193 6.16614 21.3583 8.33244 23.5257L10.8421 25.9991L14.213 29.2743L14.4325 29.469C15.7112 30.5052 17.584 30.4392 18.7885 29.2743L22.8062 25.3638L24.6674 23.5257ZM9.49569 8.34736C10.4151 7.4269 11.507 6.69668 12.7088 6.19847C13.9107 5.70026 15.1989 5.44383 16.4999 5.44383C17.8009 5.44383 19.0892 5.70026 20.291 6.19847C21.4929 6.69668 22.5847 7.4269 23.5042 8.34736C25.3097 10.1553 26.3477 12.5903 26.4018 15.1448C26.456 17.6993 25.522 20.1761 23.7946 22.0589L23.5042 22.3625L21.3245 24.5141L17.645 28.0929L17.4899 28.2249C17.2041 28.4389 16.8567 28.5544 16.4997 28.5541C16.1426 28.5538 15.7954 28.4377 15.5099 28.2233L15.3565 28.0913L10.4395 23.298L9.49569 22.3625L9.20529 22.0605C7.47792 20.1778 6.54392 17.701 6.59802 15.1465C6.65213 12.592 7.69015 10.1553 9.49569 8.34736Z" fill="#333133"/>
</svg>
