<svg width="78" height="78" viewBox="0 0 78 78" fill="none" xmlns="http://www.w3.org/2000/svg">
<rect width="78" height="78" rx="12" fill="#F3F7FF"/>
<path d="M47.6377 50.269H50.9338C51.2237 50.2736 51.5104 50.2079 51.7694 50.0775C52.0284 49.9471 52.252 49.756 52.4211 49.5204C52.5901 49.2849 52.6997 49.0118 52.7403 48.7247C52.7809 48.4376 52.7514 48.145 52.6543 47.8717C51.8137 46.0729 50.4831 44.5475 48.8151 43.4704C47.1471 42.3933 45.2092 41.8082 43.2239 41.7822M43.2239 37.5287C43.9658 37.5289 44.7005 37.3829 45.386 37.0992C46.0715 36.8154 46.6944 36.3993 47.2191 35.8748C47.7438 35.3502 48.16 34.7275 48.444 34.042C48.7279 33.3566 48.8741 32.622 48.8741 31.88C48.8761 31.1368 48.7315 30.4005 48.4484 29.7133C48.1653 29.0261 47.7494 28.4015 47.2246 27.8753C46.6997 27.3491 46.0761 26.9317 45.3896 26.647C44.7031 26.3622 43.9671 26.2157 43.2239 26.216M34.3978 37.706C36.0964 37.7019 37.7239 37.0242 38.9233 35.8216C40.1228 34.619 40.7962 32.9896 40.7958 31.2911C40.7958 29.5939 40.1215 27.9662 38.9214 26.766C37.7213 25.5659 36.0935 24.8917 34.3963 24.8917C32.6991 24.8917 31.0713 25.5659 29.8712 26.766C28.6711 27.9662 27.9968 29.5939 27.9968 31.2911C27.9968 32.9896 28.6706 34.6188 29.8704 35.8211C31.0701 37.0235 32.6978 37.7008 34.3963 37.7045M41.6206 52.1082C42.1636 52.1075 42.6958 51.9565 43.1583 51.6718C43.6207 51.3872 43.9954 50.9801 44.2407 50.4957C44.4861 50.0112 44.5925 49.4683 44.5483 48.9271C44.504 48.3859 44.3108 47.8675 43.9901 47.4293C42.8667 45.9374 41.4202 44.7191 39.759 43.8658C38.0977 43.0124 36.2649 42.5463 34.3978 42.5021C32.5307 42.5464 30.6977 43.0129 29.0365 43.8664C27.3753 44.72 25.9288 45.9386 24.8056 47.4308C24.4859 47.869 24.2936 48.3871 24.2498 48.9277C24.2061 49.4684 24.3126 50.0106 24.5576 50.4945C24.8025 50.9785 25.1765 51.3853 25.6382 51.67C26.0998 51.9548 26.6312 52.1065 27.1736 52.1082H41.6206Z" stroke="#2E6EFF" stroke-width="2.3125" stroke-linecap="round" stroke-linejoin="round"/>
</svg>
