<svg width="78" height="78" viewBox="0 0 78 78" fill="none" xmlns="http://www.w3.org/2000/svg">
<rect width="78" height="78" rx="12" fill="#F3F7FF"/>
<path d="M36.3372 36.3333C39.2828 36.3333 41.6706 33.9455 41.6706 31C41.6706 28.0545 39.2828 25.6667 36.3372 25.6667C33.3917 25.6667 31.0039 28.0545 31.0039 31C31.0039 33.9455 33.3917 36.3333 36.3372 36.3333Z" stroke="#2E6EFF" stroke-width="2"/>
<path d="M47.0033 46.3333C47.0033 49.6467 47.0033 52.3333 36.3366 52.3333C25.6699 52.3333 25.6699 49.6467 25.6699 46.3333C25.6699 43.02 30.4459 40.3333 36.3366 40.3333C42.2273 40.3333 47.0033 43.02 47.0033 46.3333Z" stroke="#2E6EFF" stroke-width="2"/>
<path d="M48.3366 25.6667C48.3366 25.6667 51.0033 27.2667 51.0033 31C51.0033 34.7333 48.3366 36.3333 48.3366 36.3333M45.6699 28.3333C45.6699 28.3333 47.0033 29.1333 47.0033 31C47.0033 32.8667 45.6699 33.6667 45.6699 33.6667" stroke="#2E6EFF" stroke-width="2" stroke-linecap="round"/>
</svg>
