<svg width="78" height="78" viewBox="0 0 78 78" fill="none" xmlns="http://www.w3.org/2000/svg">
<rect width="78" height="78" rx="12" fill="#F3F7FF"/>
<path d="M58.25 53.4375H56.1875V29.375C56.1875 29.1927 56.1151 29.0178 55.9861 28.8889C55.8572 28.7599 55.6823 28.6875 55.5 28.6875H47.9375V23.875C47.9375 23.6927 47.8651 23.5178 47.7361 23.3889C47.6072 23.2599 47.4323 23.1875 47.25 23.1875H30.75C30.5677 23.1875 30.3928 23.2599 30.2639 23.3889C30.1349 23.5178 30.0625 23.6927 30.0625 23.875V34.1875H22.5C22.3177 34.1875 22.1428 34.2599 22.0139 34.3889C21.8849 34.5178 21.8125 34.6927 21.8125 34.875V53.4375H19.75C19.5677 53.4375 19.3928 53.5099 19.2639 53.6389C19.1349 53.7678 19.0625 53.9427 19.0625 54.125C19.0625 54.3073 19.1349 54.4822 19.2639 54.6111C19.3928 54.7401 19.5677 54.8125 19.75 54.8125H58.25C58.4323 54.8125 58.6072 54.7401 58.7361 54.6111C58.8651 54.4822 58.9375 54.3073 58.9375 54.125C58.9375 53.9427 58.8651 53.7678 58.7361 53.6389C58.6072 53.5099 58.4323 53.4375 58.25 53.4375ZM23.1875 35.5625H30.75C30.9323 35.5625 31.1072 35.4901 31.2361 35.3611C31.3651 35.2322 31.4375 35.0573 31.4375 34.875V24.5625H46.5625V29.375C46.5625 29.5573 46.6349 29.7322 46.7639 29.8611C46.8928 29.9901 47.0677 30.0625 47.25 30.0625H54.8125V53.4375H42.4375V45.875C42.4375 45.6927 42.3651 45.5178 42.2361 45.3889C42.1072 45.2599 41.9323 45.1875 41.75 45.1875H36.25C36.0677 45.1875 35.8928 45.2599 35.7639 45.3889C35.6349 45.5178 35.5625 45.6927 35.5625 45.875V53.4375H23.1875V35.5625ZM41.0625 53.4375H36.9375V46.5625H41.0625V53.4375ZM36.9375 29.375C36.9375 29.1927 37.0099 29.0178 37.1389 28.8889C37.2678 28.7599 37.4427 28.6875 37.625 28.6875H40.375C40.5573 28.6875 40.7322 28.7599 40.8611 28.8889C40.9901 29.0178 41.0625 29.1927 41.0625 29.375C41.0625 29.5573 40.9901 29.7322 40.8611 29.8611C40.7322 29.9901 40.5573 30.0625 40.375 30.0625H37.625C37.4427 30.0625 37.2678 29.9901 37.1389 29.8611C37.0099 29.7322 36.9375 29.5573 36.9375 29.375ZM36.9375 34.875C36.9375 34.6927 37.0099 34.5178 37.1389 34.3889C37.2678 34.2599 37.4427 34.1875 37.625 34.1875H40.375C40.5573 34.1875 40.7322 34.2599 40.8611 34.3889C40.9901 34.5178 41.0625 34.6927 41.0625 34.875C41.0625 35.0573 40.9901 35.2322 40.8611 35.3611C40.7322 35.4901 40.5573 35.5625 40.375 35.5625H37.625C37.4427 35.5625 37.2678 35.4901 37.1389 35.3611C37.0099 35.2322 36.9375 35.0573 36.9375 34.875ZM46.5625 34.875C46.5625 34.6927 46.6349 34.5178 46.7639 34.3889C46.8928 34.2599 47.0677 34.1875 47.25 34.1875H50C50.1823 34.1875 50.3572 34.2599 50.4861 34.3889C50.6151 34.5178 50.6875 34.6927 50.6875 34.875C50.6875 35.0573 50.6151 35.2322 50.4861 35.3611C50.3572 35.4901 50.1823 35.5625 50 35.5625H47.25C47.0677 35.5625 46.8928 35.4901 46.7639 35.3611C46.6349 35.2322 46.5625 35.0573 46.5625 34.875ZM31.4375 40.375C31.4375 40.5573 31.3651 40.7322 31.2361 40.8611C31.1072 40.9901 30.9323 41.0625 30.75 41.0625H28C27.8177 41.0625 27.6428 40.9901 27.5139 40.8611C27.3849 40.7322 27.3125 40.5573 27.3125 40.375C27.3125 40.1927 27.3849 40.0178 27.5139 39.8889C27.6428 39.7599 27.8177 39.6875 28 39.6875H30.75C30.9323 39.6875 31.1072 39.7599 31.2361 39.8889C31.3651 40.0178 31.4375 40.1927 31.4375 40.375ZM31.4375 45.875C31.4375 46.0573 31.3651 46.2322 31.2361 46.3611C31.1072 46.4901 30.9323 46.5625 30.75 46.5625H28C27.8177 46.5625 27.6428 46.4901 27.5139 46.3611C27.3849 46.2322 27.3125 46.0573 27.3125 45.875C27.3125 45.6927 27.3849 45.5178 27.5139 45.3889C27.6428 45.2599 27.8177 45.1875 28 45.1875H30.75C30.9323 45.1875 31.1072 45.2599 31.2361 45.3889C31.3651 45.5178 31.4375 45.6927 31.4375 45.875ZM36.9375 40.375C36.9375 40.1927 37.0099 40.0178 37.1389 39.8889C37.2678 39.7599 37.4427 39.6875 37.625 39.6875H40.375C40.5573 39.6875 40.7322 39.7599 40.8611 39.8889C40.9901 40.0178 41.0625 40.1927 41.0625 40.375C41.0625 40.5573 40.9901 40.7322 40.8611 40.8611C40.7322 40.9901 40.5573 41.0625 40.375 41.0625H37.625C37.4427 41.0625 37.2678 40.9901 37.1389 40.8611C37.0099 40.7322 36.9375 40.5573 36.9375 40.375ZM46.5625 40.375C46.5625 40.1927 46.6349 40.0178 46.7639 39.8889C46.8928 39.7599 47.0677 39.6875 47.25 39.6875H50C50.1823 39.6875 50.3572 39.7599 50.4861 39.8889C50.6151 40.0178 50.6875 40.1927 50.6875 40.375C50.6875 40.5573 50.6151 40.7322 50.4861 40.8611C50.3572 40.9901 50.1823 41.0625 50 41.0625H47.25C47.0677 41.0625 46.8928 40.9901 46.7639 40.8611C46.6349 40.7322 46.5625 40.5573 46.5625 40.375ZM46.5625 45.875C46.5625 45.6927 46.6349 45.5178 46.7639 45.3889C46.8928 45.2599 47.0677 45.1875 47.25 45.1875H50C50.1823 45.1875 50.3572 45.2599 50.4861 45.3889C50.6151 45.5178 50.6875 45.6927 50.6875 45.875C50.6875 46.0573 50.6151 46.2322 50.4861 46.3611C50.3572 46.4901 50.1823 46.5625 50 46.5625H47.25C47.0677 46.5625 46.8928 46.4901 46.7639 46.3611C46.6349 46.2322 46.5625 46.0573 46.5625 45.875Z" fill="#2E6EFF"/>
</svg>
