<svg width="78" height="78" viewBox="0 0 78 78" fill="none" xmlns="http://www.w3.org/2000/svg">
<rect width="78" height="78" rx="12" fill="#F3F7FF"/>
<path d="M54.4389 53.7584L45.471 44.7904C47.626 42.2032 48.7007 38.8847 48.4714 35.5254C48.2421 32.166 46.7264 29.0244 44.2398 26.754C41.7532 24.4837 38.487 23.2594 35.1206 23.3359C31.7543 23.4124 28.5471 24.7837 26.1662 27.1647C23.7852 29.5457 22.4139 32.7529 22.3374 36.1192C22.2609 39.4855 23.4851 42.7517 25.7555 45.2383C28.0259 47.725 31.1675 49.2406 34.5268 49.4699C37.8862 49.6992 41.2046 48.6245 43.7918 46.4695L52.7598 55.4375L54.4389 53.7584ZM24.7514 36.4375C24.7514 34.3237 25.3783 32.2574 26.5526 30.4998C27.727 28.7423 29.3961 27.3724 31.349 26.5635C33.3019 25.7546 35.4508 25.543 37.524 25.9553C39.5971 26.3677 41.5015 27.3856 42.9962 28.8803C44.4908 30.375 45.5087 32.2793 45.9211 34.3525C46.3335 36.4256 46.1218 38.5745 45.3129 40.5274C44.504 42.4803 43.1342 44.1495 41.3766 45.3238C39.6191 46.4982 37.5527 47.125 35.4389 47.125C32.6054 47.1218 29.8888 45.9948 27.8852 43.9912C25.8816 41.9876 24.7546 39.271 24.7514 36.4375Z" fill="#2E6EFF"/>
</svg>
