<svg width="29" height="28" viewBox="0 0 29 28" fill="none" xmlns="http://www.w3.org/2000/svg">
<path d="M8.42 2.64487L10.08 2.14487C10.8357 1.91689 11.6484 1.9717 12.3667 2.29906C13.0849 2.62642 13.6594 3.20396 13.983 3.92387L15.016 6.22187C15.2943 6.84093 15.3719 7.53161 15.2377 8.19698C15.1036 8.86235 14.7645 9.46903 14.268 9.93187L12.463 11.6149C12.4414 11.6363 12.4232 11.6609 12.409 11.6879C12.22 12.0739 12.507 13.1049 13.406 14.6629C14.42 16.4189 15.203 17.1129 15.566 17.0059L17.935 16.2809C18.5838 16.0828 19.2783 16.0926 19.9212 16.3091C20.5641 16.5255 21.1231 16.9377 21.52 17.4879L22.988 19.5209C23.4489 20.1592 23.6624 20.9431 23.5888 21.727C23.5152 22.5109 23.1596 23.2414 22.588 23.7829L21.325 24.9779C20.8858 25.3939 20.3525 25.6975 19.7705 25.8627C19.1886 26.028 18.5753 26.05 17.983 25.9269C14.466 25.1949 11.315 22.3629 8.503 17.4929C5.69 12.6199 4.813 8.46987 5.943 5.05687C6.13215 4.48547 6.45607 3.968 6.88738 3.54818C7.31868 3.12837 7.8437 2.81853 8.42 2.64487ZM8.855 4.08087C8.50921 4.18502 8.19357 4.37088 7.93475 4.62273C7.67593 4.87459 7.48154 5.18505 7.368 5.52787C6.394 8.46887 7.183 12.2049 9.803 16.7429C12.421 21.2779 15.259 23.8279 18.29 24.4579C18.6454 24.5316 19.0134 24.5183 19.3625 24.4191C19.7116 24.3198 20.0316 24.1376 20.295 23.8879L21.557 22.6939C21.8649 22.4024 22.0565 22.0091 22.0962 21.587C22.136 21.1648 22.0211 20.7427 21.773 20.3989L20.305 18.3649C20.0913 18.0687 19.7904 17.8468 19.4443 17.7302C19.0982 17.6137 18.7243 17.6083 18.375 17.7149L16 18.4419C14.686 18.8329 13.45 17.7379 12.108 15.4119C10.971 13.4439 10.577 12.0219 11.063 11.0289C11.1577 10.8355 11.2837 10.6652 11.441 10.5179L13.246 8.83487C13.5134 8.58565 13.6961 8.25894 13.7684 7.90059C13.8407 7.54225 13.7989 7.17027 13.649 6.83687L12.615 4.53987C12.4408 4.15213 12.1313 3.84107 11.7445 3.66477C11.3577 3.48848 10.9199 3.45901 10.513 3.58187L8.855 4.08087Z" fill="#333133"/>
</svg>
