<svg width="25" height="25" viewBox="0 0 25 25" fill="none" xmlns="http://www.w3.org/2000/svg">
<circle cx="12.5" cy="12.5" r="12.5" fill="#EDEDED"/>
<path d="M8.80824 5.60587L9.8161 5.3023C10.2749 5.16389 10.7684 5.19716 11.2044 5.39592C11.6405 5.59467 11.9893 5.94532 12.1858 6.38241L12.813 7.77762C12.982 8.15348 13.029 8.57282 12.9476 8.9768C12.8661 9.38077 12.6602 9.74911 12.3588 10.0301L11.2629 11.0519C11.2498 11.065 11.2388 11.0799 11.2301 11.0963C11.1154 11.3306 11.2896 11.9566 11.8355 12.9025C12.4511 13.9687 12.9265 14.39 13.1469 14.3251L14.5852 13.8849C14.9791 13.7646 15.4008 13.7706 15.7911 13.902C16.1814 14.0334 16.5209 14.2837 16.7618 14.6177L17.6531 15.852C17.9329 16.2396 18.0625 16.7155 18.0179 17.1915C17.9732 17.6674 17.7573 18.1109 17.4102 18.4397L16.6434 19.1652C16.3768 19.4178 16.053 19.6021 15.6996 19.7024C15.3463 19.8028 14.974 19.8161 14.6143 19.7414C12.479 19.2969 10.5659 17.5775 8.85864 14.6207C7.15074 11.6621 6.61828 9.14248 7.30435 7.0703C7.41919 6.72338 7.61586 6.40921 7.87772 6.15432C8.13959 5.89943 8.45835 5.71131 8.80824 5.60587ZM9.07235 6.47773C8.86241 6.54097 8.67077 6.65381 8.51363 6.80672C8.35649 6.95963 8.23846 7.14812 8.16953 7.35627C7.57817 9.14187 8.05721 11.4102 9.64792 14.1654C11.2374 16.9188 12.9605 18.467 14.8007 18.8495C15.0165 18.8943 15.2399 18.8862 15.4519 18.8259C15.6639 18.7657 15.8581 18.655 16.0181 18.5034L16.7843 17.7785C16.9712 17.6015 17.0876 17.3627 17.1117 17.1064C17.1358 16.8501 17.0661 16.5938 16.9154 16.3851L16.0241 15.1502C15.8944 14.9703 15.7117 14.8356 15.5016 14.7648C15.2914 14.6941 15.0644 14.6908 14.8523 14.7555L13.4104 15.1969C12.6126 15.4343 11.8622 14.7695 11.0474 13.3573C10.3571 12.1624 10.1178 11.2991 10.4129 10.6962C10.4704 10.5788 10.5469 10.4754 10.6424 10.3859L11.7383 9.36409C11.9007 9.21278 12.0116 9.01442 12.0555 8.79685C12.0994 8.57928 12.074 8.35344 11.983 8.15102L11.3552 6.75641C11.2494 6.521 11.0616 6.33214 10.8267 6.2251C10.5919 6.11807 10.3261 6.10018 10.079 6.17477L9.07235 6.47773Z" fill="#9B9B9B"/>
</svg>
