<svg width="60" height="59" viewBox="0 0 60 59" fill="none" xmlns="http://www.w3.org/2000/svg">
<circle cx="30" cy="29.5" r="29.5" fill="#E6EDF7"/>
<path d="M24.4245 18.6451L26.0845 18.1451C26.8402 17.9171 27.653 17.9719 28.3712 18.2993C29.0894 18.6267 29.6639 19.2042 29.9875 19.9241L31.0205 22.2221C31.2989 22.8412 31.3764 23.5319 31.2423 24.1972C31.1081 24.8626 30.769 25.4693 30.2725 25.9321L28.4675 27.6151C28.4459 27.6366 28.4277 27.6612 28.4135 27.6881C28.2245 28.0741 28.5115 29.1051 29.4105 30.6631C30.4245 32.4191 31.2075 33.1131 31.5705 33.0061L33.9395 32.2811C34.5883 32.083 35.2828 32.0929 35.9257 32.3093C36.5686 32.5258 37.1277 32.938 37.5245 33.4881L38.9925 35.5211C39.4534 36.1594 39.6669 36.9434 39.5933 37.7273C39.5197 38.5112 39.1641 39.2417 38.5925 39.7831L37.3295 40.9781C36.8903 41.3941 36.357 41.6977 35.775 41.863C35.1931 42.0282 34.5798 42.0502 33.9875 41.9271C30.4705 41.1951 27.3195 38.3631 24.5075 33.4931C21.6945 28.6201 20.8175 24.4701 21.9475 21.0571C22.1367 20.4857 22.4606 19.9682 22.8919 19.5484C23.3232 19.1286 23.8482 18.8188 24.4245 18.6451ZM24.8595 20.0811C24.5137 20.1853 24.1981 20.3711 23.9393 20.623C23.6804 20.8748 23.4861 21.1853 23.3725 21.5281C22.3985 24.4691 23.1875 28.2051 25.8075 32.7431C28.4255 37.2781 31.2635 39.8281 34.2945 40.4581C34.6499 40.5319 35.0179 40.5186 35.367 40.4193C35.7161 40.32 36.0361 40.1378 36.2995 39.8881L37.5615 38.6941C37.8694 38.4026 38.061 38.0093 38.1008 37.5872C38.1405 37.1651 38.0256 36.7429 37.7775 36.3991L36.3095 34.3651C36.0959 34.0689 35.7949 33.847 35.4488 33.7305C35.1027 33.6139 34.7288 33.6085 34.3795 33.7151L32.0045 34.4421C30.6905 34.8331 29.4545 33.7381 28.1125 31.4121C26.9755 29.4441 26.5815 28.0221 27.0675 27.0291C27.1622 26.8358 27.2882 26.6654 27.4455 26.5181L29.2505 24.8351C29.518 24.5859 29.7006 24.2592 29.7729 23.9008C29.8452 23.5425 29.8034 23.1705 29.6535 22.8371L28.6195 20.5401C28.4453 20.1524 28.1358 19.8413 27.749 19.665C27.3622 19.4887 26.9245 19.4593 26.5175 19.5821L24.8595 20.0811Z" fill="#2E6EFF"/>
</svg>
