<svg width="93" height="93" viewBox="0 0 93 93" fill="none" xmlns="http://www.w3.org/2000/svg">
<circle cx="46.5" cy="46.5" r="46.5" fill="#CFDEFF"/>
<path d="M65 47C65 37.0589 56.9412 29 47 29C37.0589 29 29 37.0589 29 47C29 56.9412 37.0589 65 47 65C56.9412 65 65 56.9412 65 47ZM69.5 47C69.5 59.4263 59.4263 69.5 47 69.5C34.5736 69.5 24.5 59.4263 24.5 47C24.5 34.5736 34.5736 24.5 47 24.5C59.4263 24.5 69.5 34.5736 69.5 47ZM50.3757 38C51.1126 38.9811 51.6406 40.1281 51.8938 41.375H56V44.75H51.8938C51.1119 48.6013 47.7069 51.5 43.625 51.5H43.1991L51.5682 59.8693L49.1818 62.2557L38 51.0741V48.125H43.625C45.8293 48.125 47.7045 46.7163 48.3995 44.75H38V41.375H48.3995C47.7045 39.4087 45.8293 38 43.625 38H38V34.625H56V38H50.3757Z" fill="#2E6EFF"/>
</svg>
