<svg width="39" height="39" viewBox="0 0 39 39" fill="none" xmlns="http://www.w3.org/2000/svg">
<circle cx="19.5" cy="19.5" r="19.5" fill="#E6FFF4"/>
<g clip-path="url(#clip0_6_156)">
<path d="M27.5 19.6973C27.8906 19.9642 28.2389 20.2669 28.5449 20.6055C28.8509 20.944 29.1146 21.3151 29.3359 21.7188C29.5573 22.1224 29.7201 22.5488 29.8242 22.998C29.9284 23.4473 29.987 23.9062 30 24.375C30 25.1497 29.8535 25.8789 29.5605 26.5625C29.2676 27.2461 28.8639 27.8418 28.3496 28.3496C27.8353 28.8574 27.2396 29.2578 26.5625 29.5508C25.8854 29.8438 25.1562 29.9935 24.375 30C23.7826 30 23.2096 29.9121 22.6562 29.7363C22.1029 29.5605 21.5951 29.3066 21.1328 28.9746C20.6706 28.6426 20.2604 28.2454 19.9023 27.7832C19.5443 27.321 19.2676 26.8099 19.0723 26.25H11.25V11.25H13.75V10H15V11.25H23.75V10H25V11.25H27.5V19.6973ZM12.5 12.5V15H26.25V12.5H25V13.75H23.75V12.5H15V13.75H13.75V12.5H12.5ZM18.7793 25C18.7598 24.7982 18.75 24.5898 18.75 24.375C18.75 23.6003 18.8965 22.8711 19.1895 22.1875C19.4824 21.5039 19.8861 20.9082 20.4004 20.4004C20.9147 19.8926 21.5104 19.4922 22.1875 19.1992C22.8646 18.9062 23.5938 18.7565 24.375 18.75C25.026 18.75 25.651 18.8574 26.25 19.0723V16.25H12.5V25H18.7793ZM24.375 28.75C24.9805 28.75 25.5469 28.6361 26.0742 28.4082C26.6016 28.1803 27.0638 27.8678 27.4609 27.4707C27.8581 27.0736 28.1706 26.6113 28.3984 26.084C28.6263 25.5566 28.7435 24.987 28.75 24.375C28.75 23.7695 28.6361 23.2031 28.4082 22.6758C28.1803 22.1484 27.8678 21.6862 27.4707 21.2891C27.0736 20.8919 26.6113 20.5794 26.084 20.3516C25.5566 20.1237 24.987 20.0065 24.375 20C23.7695 20 23.2031 20.1139 22.6758 20.3418C22.1484 20.5697 21.6862 20.8822 21.2891 21.2793C20.8919 21.6764 20.5794 22.1387 20.3516 22.666C20.1237 23.1934 20.0065 23.763 20 24.375C20 24.9805 20.1139 25.5469 20.3418 26.0742C20.5697 26.6016 20.8822 27.0638 21.2793 27.4609C21.6764 27.8581 22.1387 28.1706 22.666 28.3984C23.1934 28.6263 23.763 28.7435 24.375 28.75ZM25 23.75H26.875V25H23.75V21.25H25V23.75Z" fill="#6CD283"/>
</g>
<defs>
<clipPath id="clip0_6_156">
<rect width="20" height="20" fill="white" transform="translate(10 10)"/>
</clipPath>
</defs>
</svg>
