<svg width="39" height="39" viewBox="0 0 39 39" fill="none" xmlns="http://www.w3.org/2000/svg">
<circle cx="19.5" cy="19.5" r="19.5" fill="#FEF8EC"/>
<path d="M19.94 10C18.889 10.0139 17.8859 10.4417 17.1483 11.1906C16.4107 11.9394 15.9981 12.9489 16 14C15.94 15.64 15.81 17.47 15.03 18.59C17.71 20.22 20 20 20 20C20 20 22.29 20.22 24.97 18.59C24.12 17.22 23.94 15.54 24 14C24 11.79 22.21 10 20 10H19.94ZM16.86 20.32C14 20.93 12 22.35 12 24V28H20L17 24H14.5M20 28L21.78 20.81C21.78 20.81 21 21 20 21C19 21 18.22 20.81 18.22 20.81M20 28H28V24C28 22.35 26 20.93 23.14 20.32L25.5 24H23L20 28Z" fill="#F5DCA9"/>
</svg>
