<svg width="39" height="39" viewBox="0 0 39 39" fill="none" xmlns="http://www.w3.org/2000/svg">
<circle cx="19.5" cy="19.5" r="19.5" fill="#FBF1FF"/>
<path d="M28.75 25.25H27.5V19.625L27.6828 19.8078C27.8003 19.925 27.9596 19.9908 28.1256 19.9907C28.2916 19.9906 28.4507 19.9245 28.568 19.807C28.6852 19.6895 28.751 19.5302 28.7509 19.3642C28.7508 19.1983 28.6847 19.0391 28.5672 18.9218L20.8836 11.2406C20.6492 11.0063 20.3314 10.8748 20 10.8748C19.6686 10.8748 19.3508 11.0063 19.1164 11.2406L11.4328 18.9218C11.3156 19.0391 11.2499 19.1981 11.2499 19.3639C11.25 19.5297 11.3159 19.6886 11.4332 19.8058C11.5505 19.923 11.7095 19.9888 11.8753 19.9887C12.0411 19.9886 12.2 19.9227 12.3172 19.8054L12.5 19.625V25.25H11.25C11.0842 25.25 10.9253 25.3158 10.8081 25.433C10.6908 25.5502 10.625 25.7092 10.625 25.875C10.625 26.0407 10.6908 26.1997 10.8081 26.3169C10.9253 26.4341 11.0842 26.5 11.25 26.5H28.75C28.9158 26.5 29.0747 26.4341 29.1919 26.3169C29.3092 26.1997 29.375 26.0407 29.375 25.875C29.375 25.7092 29.3092 25.5502 29.1919 25.433C29.0747 25.3158 28.9158 25.25 28.75 25.25ZM13.75 18.375L20 12.125L26.25 18.375V25.25H22.5V20.875C22.5 20.7092 22.4342 20.5502 22.3169 20.433C22.1997 20.3158 22.0408 20.25 21.875 20.25H18.125C17.9592 20.25 17.8003 20.3158 17.6831 20.433C17.5658 20.5502 17.5 20.7092 17.5 20.875V25.25H13.75V18.375ZM21.25 25.25H18.75V21.5H21.25V25.25Z" fill="#DFA2F8"/>
</svg>
