<svg width="39" height="39" viewBox="0 0 39 39" fill="none" xmlns="http://www.w3.org/2000/svg">
<circle cx="19.5" cy="19.5" r="19.5" fill="#FFF1FD"/>
<path d="M19 18.3333C20.8409 18.3333 22.3333 16.8409 22.3333 15C22.3333 13.159 20.8409 11.6666 19 11.6666C17.159 11.6666 15.6667 13.159 15.6667 15C15.6667 16.8409 17.159 18.3333 19 18.3333Z" stroke="#DD7FCF" stroke-width="1.25"/>
<path d="M25.665 25C25.6667 24.8634 25.6667 24.7242 25.6667 24.5834C25.6667 22.5125 22.6817 20.8334 19 20.8334C15.3183 20.8334 12.3333 22.5125 12.3333 24.5834C12.3333 26.6542 12.3333 28.3334 19 28.3334C20.8592 28.3334 22.2 28.2025 23.1667 27.9692" stroke="#DD7FCF" stroke-width="1.25" stroke-linecap="round"/>
</svg>
