<svg width="88" height="88" viewBox="0 0 88 88" fill="none" xmlns="http://www.w3.org/2000/svg">
<circle cx="44" cy="44" r="43" fill="#FFF6EC" stroke="#FAA24C"/>
<path d="M53.8844 56.7233H57.4477C57.7611 56.7282 58.0711 56.6572 58.3511 56.5163C58.6311 56.3753 58.8728 56.1687 59.0556 55.914C59.2384 55.6593 59.3568 55.3642 59.4007 55.0538C59.4446 54.7434 59.4127 54.427 59.3077 54.1317C58.399 52.187 56.9605 50.5379 55.1572 49.3734C53.354 48.209 51.259 47.5765 49.1127 47.5483M49.1127 42.95C49.9148 42.9502 50.7091 42.7924 51.4501 42.4856C52.1912 42.1788 52.8646 41.7291 53.4319 41.162C53.9991 40.5949 54.449 39.9216 54.756 39.1806C55.063 38.4396 55.221 37.6454 55.221 36.8433C55.2232 36.0398 55.0668 35.2438 54.7608 34.5009C54.4548 33.758 54.0052 33.0827 53.4378 32.5139C52.8703 31.9451 52.1962 31.4938 51.454 31.1859C50.7118 30.8781 49.9162 30.7198 49.1127 30.72M39.571 43.1417C41.4073 43.1372 43.1668 42.4046 44.4635 41.1045C45.7602 39.8043 46.4882 38.0429 46.4877 36.2067C46.4877 34.3718 45.7588 32.6121 44.4614 31.3147C43.1639 30.0172 41.4042 29.2883 39.5694 29.2883C37.7345 29.2883 35.9748 30.0172 34.6774 31.3147C33.3799 32.6121 32.651 34.3718 32.651 36.2067C32.651 38.0429 33.3795 39.8042 34.6765 41.104C35.9735 42.4038 37.7331 43.136 39.5694 43.14M47.3794 58.7117C47.9664 58.7109 48.5418 58.5476 49.0418 58.2399C49.5418 57.9322 49.9468 57.4921 50.212 56.9684C50.4772 56.4446 50.5923 55.8577 50.5445 55.2726C50.4967 54.6875 50.2878 54.127 49.941 53.6533C48.7266 52.0404 47.1628 50.7234 45.3669 49.8009C43.5709 48.8784 41.5895 48.3744 39.571 48.3267C37.5525 48.3746 35.5709 48.8788 33.775 49.8016C31.9791 50.7244 30.4153 52.0418 29.201 53.655C28.8555 54.1287 28.6475 54.6888 28.6002 55.2733C28.5529 55.8577 28.668 56.4439 28.9329 56.9671C29.1977 57.4903 29.602 57.9301 30.1011 58.2379C30.6002 58.5458 31.1747 58.7097 31.761 58.7117H47.3794Z" stroke="#FAA24C" stroke-width="2.5" stroke-linecap="round" stroke-linejoin="round"/>
</svg>
