<svg width="88" height="88" viewBox="0 0 88 88" fill="none" xmlns="http://www.w3.org/2000/svg">
<circle cx="44" cy="44" r="43" fill="#FFF6EC" stroke="#FAA24C"/>
<path d="M62.375 57.7812H60.4062V34.8125C60.4062 34.6385 60.3371 34.4715 60.214 34.3485C60.091 34.2254 59.924 34.1562 59.75 34.1562H52.5312V29.5625C52.5312 29.3885 52.4621 29.2215 52.339 29.0985C52.216 28.9754 52.049 28.9062 51.875 28.9062H36.125C35.951 28.9062 35.784 28.9754 35.661 29.0985C35.5379 29.2215 35.4688 29.3885 35.4688 29.5625V39.4062H28.25C28.076 39.4062 27.909 39.4754 27.786 39.5985C27.6629 39.7215 27.5938 39.8885 27.5938 40.0625V57.7812H25.625C25.451 57.7812 25.284 57.8504 25.161 57.9735C25.0379 58.0965 24.9688 58.2635 24.9688 58.4375C24.9688 58.6115 25.0379 58.7785 25.161 58.9015C25.284 59.0246 25.451 59.0938 25.625 59.0938H62.375C62.549 59.0938 62.716 59.0246 62.839 58.9015C62.9621 58.7785 63.0312 58.6115 63.0312 58.4375C63.0312 58.2635 62.9621 58.0965 62.839 57.9735C62.716 57.8504 62.549 57.7812 62.375 57.7812ZM28.9062 40.7188H36.125C36.299 40.7188 36.466 40.6496 36.589 40.5265C36.7121 40.4035 36.7812 40.2365 36.7812 40.0625V30.2188H51.2188V34.8125C51.2188 34.9865 51.2879 35.1535 51.411 35.2765C51.534 35.3996 51.701 35.4688 51.875 35.4688H59.0938V57.7812H47.2812V50.5625C47.2812 50.3885 47.2121 50.2215 47.089 50.0985C46.966 49.9754 46.799 49.9062 46.625 49.9062H41.375C41.201 49.9062 41.034 49.9754 40.911 50.0985C40.7879 50.2215 40.7188 50.3885 40.7188 50.5625V57.7812H28.9062V40.7188ZM45.9688 57.7812H42.0312V51.2188H45.9688V57.7812ZM42.0312 34.8125C42.0312 34.6385 42.1004 34.4715 42.2235 34.3485C42.3465 34.2254 42.5135 34.1562 42.6875 34.1562H45.3125C45.4865 34.1562 45.6535 34.2254 45.7765 34.3485C45.8996 34.4715 45.9688 34.6385 45.9688 34.8125C45.9688 34.9865 45.8996 35.1535 45.7765 35.2765C45.6535 35.3996 45.4865 35.4688 45.3125 35.4688H42.6875C42.5135 35.4688 42.3465 35.3996 42.2235 35.2765C42.1004 35.1535 42.0312 34.9865 42.0312 34.8125ZM42.0312 40.0625C42.0312 39.8885 42.1004 39.7215 42.2235 39.5985C42.3465 39.4754 42.5135 39.4062 42.6875 39.4062H45.3125C45.4865 39.4062 45.6535 39.4754 45.7765 39.5985C45.8996 39.7215 45.9688 39.8885 45.9688 40.0625C45.9688 40.2365 45.8996 40.4035 45.7765 40.5265C45.6535 40.6496 45.4865 40.7188 45.3125 40.7188H42.6875C42.5135 40.7188 42.3465 40.6496 42.2235 40.5265C42.1004 40.4035 42.0312 40.2365 42.0312 40.0625ZM51.2188 40.0625C51.2188 39.8885 51.2879 39.7215 51.411 39.5985C51.534 39.4754 51.701 39.4062 51.875 39.4062H54.5C54.674 39.4062 54.841 39.4754 54.964 39.5985C55.0871 39.7215 55.1562 39.8885 55.1562 40.0625C55.1562 40.2365 55.0871 40.4035 54.964 40.5265C54.841 40.6496 54.674 40.7188 54.5 40.7188H51.875C51.701 40.7188 51.534 40.6496 51.411 40.5265C51.2879 40.4035 51.2188 40.2365 51.2188 40.0625ZM36.7812 45.3125C36.7812 45.4865 36.7121 45.6535 36.589 45.7765C36.466 45.8996 36.299 45.9688 36.125 45.9688H33.5C33.326 45.9688 33.159 45.8996 33.036 45.7765C32.9129 45.6535 32.8438 45.4865 32.8438 45.3125C32.8438 45.1385 32.9129 44.9715 33.036 44.8485C33.159 44.7254 33.326 44.6562 33.5 44.6562H36.125C36.299 44.6562 36.466 44.7254 36.589 44.8485C36.7121 44.9715 36.7812 45.1385 36.7812 45.3125ZM36.7812 50.5625C36.7812 50.7365 36.7121 50.9035 36.589 51.0265C36.466 51.1496 36.299 51.2188 36.125 51.2188H33.5C33.326 51.2188 33.159 51.1496 33.036 51.0265C32.9129 50.9035 32.8438 50.7365 32.8438 50.5625C32.8438 50.3885 32.9129 50.2215 33.036 50.0985C33.159 49.9754 33.326 49.9062 33.5 49.9062H36.125C36.299 49.9062 36.466 49.9754 36.589 50.0985C36.7121 50.2215 36.7812 50.3885 36.7812 50.5625ZM42.0312 45.3125C42.0312 45.1385 42.1004 44.9715 42.2235 44.8485C42.3465 44.7254 42.5135 44.6562 42.6875 44.6562H45.3125C45.4865 44.6562 45.6535 44.7254 45.7765 44.8485C45.8996 44.9715 45.9688 45.1385 45.9688 45.3125C45.9688 45.4865 45.8996 45.6535 45.7765 45.7765C45.6535 45.8996 45.4865 45.9688 45.3125 45.9688H42.6875C42.5135 45.9688 42.3465 45.8996 42.2235 45.7765C42.1004 45.6535 42.0312 45.4865 42.0312 45.3125ZM51.2188 45.3125C51.2188 45.1385 51.2879 44.9715 51.411 44.8485C51.534 44.7254 51.701 44.6562 51.875 44.6562H54.5C54.674 44.6562 54.841 44.7254 54.964 44.8485C55.0871 44.9715 55.1562 45.1385 55.1562 45.3125C55.1562 45.4865 55.0871 45.6535 54.964 45.7765C54.841 45.8996 54.674 45.9688 54.5 45.9688H51.875C51.701 45.9688 51.534 45.8996 51.411 45.7765C51.2879 45.6535 51.2188 45.4865 51.2188 45.3125ZM51.2188 50.5625C51.2188 50.3885 51.2879 50.2215 51.411 50.0985C51.534 49.9754 51.701 49.9062 51.875 49.9062H54.5C54.674 49.9062 54.841 49.9754 54.964 50.0985C55.0871 50.2215 55.1562 50.3885 55.1562 50.5625C55.1562 50.7365 55.0871 50.9035 54.964 51.0265C54.841 51.1496 54.674 51.2188 54.5 51.2188H51.875C51.701 51.2188 51.534 51.1496 51.411 51.0265C51.2879 50.9035 51.2188 50.7365 51.2188 50.5625Z" fill="#FAA24C"/>
</svg>
