<svg width="88" height="88" viewBox="0 0 88 88" fill="none" xmlns="http://www.w3.org/2000/svg">
<circle cx="44" cy="44" r="43" fill="#FFF6EC" stroke="#FAA24C"/>
<path d="M67.0318 41.1384L62.3446 31.7751C62.2153 31.5163 62.0363 31.2855 61.8177 31.0958C61.5992 30.9062 61.3454 30.7615 61.0709 30.6699C60.7964 30.5784 60.5066 30.5418 60.218 30.5622C59.9294 30.5827 59.6476 30.6598 59.3888 30.7892L54.575 33.1869L44.6829 30.5726C44.5626 30.5407 44.436 30.5407 44.3157 30.5726L34.4237 33.1869L29.6099 30.78C29.3511 30.6507 29.0693 30.5735 28.7807 30.5531C28.492 30.5326 28.2022 30.5692 27.9277 30.6607C27.6532 30.7523 27.3995 30.897 27.1809 31.0866C26.9624 31.2763 26.7833 31.5071 26.654 31.7659L21.9669 41.1384C21.8375 41.3972 21.7604 41.679 21.7399 41.9676C21.7194 42.2562 21.756 42.546 21.8476 42.8205C21.9391 43.095 22.0838 43.3488 22.2735 43.5673C22.4631 43.7859 22.6939 43.9649 22.9528 44.0943L27.963 46.6003L38.1984 53.911C38.2729 53.9645 38.3571 54.0031 38.4462 54.0248L50.1962 56.9623C50.3185 56.9944 50.4469 56.9943 50.5692 56.9621C50.6914 56.9299 50.8032 56.8668 50.8939 56.7787L61.0907 46.5819L66.0477 44.1034C66.3066 43.9741 66.5374 43.795 66.727 43.5765C66.9166 43.358 67.0614 43.1042 67.1529 42.8297C67.2445 42.5552 67.2811 42.2654 67.2606 41.9768C67.2401 41.6882 67.163 41.4064 67.0336 41.1476L67.0318 41.1384ZM57.6685 47.9222L50.8388 42.4511C50.6974 42.3376 50.5191 42.2805 50.3381 42.2907C50.1571 42.3008 49.9862 42.3776 49.8584 42.5062C46.2802 46.1119 42.2687 45.6475 39.7075 44.0116C39.6133 43.9512 39.5338 43.8703 39.475 43.7749C39.4162 43.6796 39.3796 43.5722 39.3679 43.4609C39.3553 43.3536 39.3672 43.2449 39.4024 43.1429C39.4377 43.0409 39.4956 42.9481 39.5717 42.8715L47.7342 34.9531H54.3271L59.7615 45.8237L57.6685 47.9222ZM23.241 42.3556C23.1823 42.1738 23.1968 41.9762 23.2814 41.8048L27.9759 32.4232C28.0361 32.302 28.1287 32.1997 28.2434 32.1278C28.3581 32.0559 28.4904 32.017 28.6258 32.0156C28.7394 32.0163 28.8512 32.0433 28.9526 32.0946L33.3589 34.2977L28.0144 44.9847L23.6082 42.7816C23.522 42.7382 23.4452 42.6782 23.3822 42.6051C23.3192 42.532 23.2712 42.4473 23.241 42.3556ZM50.1485 55.4367L38.9383 52.6332L29.2812 45.7356L34.8515 34.5859L44.4993 32.0413L49.9557 33.4844H47.4368C47.2456 33.4842 47.0618 33.5586 46.9246 33.6918L38.5344 41.8305C38.3009 42.064 38.1228 42.3471 38.0135 42.6586C37.9041 42.9702 37.8661 43.3024 37.9025 43.6306C37.9388 43.9588 38.0484 44.2747 38.2232 44.5548C38.3981 44.835 38.6337 45.0722 38.9126 45.2491C42.5624 47.5825 47.0146 47.085 50.4165 43.9988L56.6165 48.9668L50.1485 55.4367ZM65.754 42.3556C65.7238 42.4473 65.6758 42.532 65.6128 42.6051C65.5498 42.6782 65.473 42.7382 65.3868 42.7816L60.9805 44.9847L55.6398 34.2977L60.046 32.0946C60.2194 32.0102 60.419 31.9973 60.6017 32.0588C60.7845 32.1203 60.9357 32.2512 61.0228 32.4232L65.7099 41.7957C65.7994 41.9686 65.8166 42.17 65.7576 42.3556H65.754ZM44.4883 60.8398C44.4476 60.9977 44.3554 61.1375 44.2265 61.2372C44.0975 61.3369 43.939 61.3909 43.776 61.3906C43.7141 61.391 43.6524 61.3836 43.5924 61.3686L35.9402 59.4537C35.8505 59.4318 35.7658 59.3932 35.6905 59.3399L30.8546 55.8828C30.6961 55.7696 30.5891 55.5981 30.5571 55.4059C30.5251 55.2138 30.5707 55.0168 30.6839 54.8584C30.7971 54.6999 30.9686 54.5928 31.1608 54.5608C31.3529 54.5288 31.5499 54.5744 31.7083 54.6876L36.4304 58.0602L43.9577 59.9421C44.0517 59.9658 44.1401 60.0079 44.2177 60.066C44.2953 60.1241 44.3607 60.197 44.41 60.2804C44.4594 60.3639 44.4917 60.4563 44.5051 60.5523C44.5185 60.6483 44.5128 60.746 44.4883 60.8398Z" fill="#FAA24C"/>
</svg>
