<svg width="87" height="88" viewBox="0 0 87 88" fill="none" xmlns="http://www.w3.org/2000/svg">
<circle cx="43.5" cy="44" r="43" fill="#FFF6EC" stroke="#FAA24C"/>
<g clip-path="url(#clip0_128_207)">
<path d="M43.8654 45.0667C47.4654 45.0667 50.2654 42.1333 50.2654 38.5333C50.2654 34.9333 47.332 32.1333 43.732 32.1333C40.132 32.1333 37.332 35.0667 37.332 38.5333C37.332 42.1333 40.2654 45.0667 43.8654 45.0667ZM43.732 34.8C43.8654 34.8 43.8654 34.8 43.732 34.8C45.8654 34.8 47.5987 36.5333 47.5987 38.6667C47.5987 40.8 45.8654 42.4 43.732 42.4C41.5987 42.4 39.9987 40.6667 39.9987 38.6667C39.9987 36.5333 41.732 34.8 43.732 34.8Z" fill="#FAA24C"/>
<path d="M63.6 44.2667C61.0667 42 57.7333 40.8 54.2667 40.9333H53.2C52.9333 42 52.5333 42.9333 52 43.7333C52.8 43.6 53.4667 43.6 54.2667 43.6C56.8 43.4667 59.3333 44.2667 61.3333 45.7333V55.3333H64V44.6667L63.6 44.2667Z" fill="#FAA24C"/>
<path d="M51.1987 32.4C51.8654 30.8 53.732 30 55.4654 30.6667C57.0654 31.3333 57.8654 33.2 57.1987 34.9333C56.6654 36.1333 55.4654 36.9333 54.2654 36.9333C53.9987 36.9333 53.5987 36.9333 53.332 36.8C53.4654 37.4667 53.4654 38.1333 53.4654 38.6667V39.4667C53.732 39.4667 53.9987 39.6 54.2654 39.6C57.5987 39.6 60.2654 36.9333 60.2654 33.7333C60.2654 30.4 57.5987 27.7333 54.3987 27.7333C52.2654 27.7333 50.3987 28.8 49.332 30.6667C49.9987 31.0667 50.6654 31.6 51.1987 32.4Z" fill="#FAA24C"/>
<path d="M36 43.8667C35.4667 43.0667 35.0667 42.1333 34.8 41.0667H33.7333C30.2667 40.9333 26.9333 42.1333 24.4 44.2667L24 44.6667V55.3333H26.6667V45.7333C28.8 44.2667 31.2 43.4667 33.7333 43.6C34.5333 43.6 35.3333 43.7333 36 43.8667Z" fill="#FAA24C"/>
<path d="M33.7343 39.4667C34.001 39.4667 34.2677 39.4667 34.5343 39.3333V38.5333C34.5343 37.8667 34.5343 37.2 34.6677 36.6667C34.401 36.8 34.001 36.8 33.7343 36.8C32.001 36.8 30.5343 35.3333 30.5343 33.6C30.5343 31.8667 32.001 30.4 33.7343 30.4C35.0677 30.4 36.2677 31.2 36.801 32.4C37.3343 31.7333 38.1343 31.0667 38.801 30.5333C37.0677 27.7333 33.4677 26.8 30.6677 28.5333C27.8677 30.2667 26.9343 33.8667 28.6677 36.6667C29.7343 38.4 31.601 39.4667 33.7343 39.4667Z" fill="#FAA24C"/>
<path d="M54.7987 52.2667L54.532 51.8667C51.8654 48.9333 48.132 47.2 44.132 47.3333C40.132 47.2 36.2654 48.9333 33.5987 51.8667L33.332 52.2667V62.4C33.332 63.6 34.2654 64.6667 35.5987 64.6667H52.6654C53.8654 64.6667 54.932 63.6 54.932 62.4V52.2667H54.7987ZM52.132 62H35.9987V53.2C38.132 51.0667 41.0654 50 44.132 50C47.0654 49.8667 49.9987 51.0667 52.132 53.2V62Z" fill="#FAA24C"/>
</g>
<defs>
<clipPath id="clip0_128_207">
<rect width="48" height="48" fill="white" transform="translate(20 22)"/>
</clipPath>
</defs>
</svg>
