<svg width="44" height="44" viewBox="0 0 44 44" fill="none" xmlns="http://www.w3.org/2000/svg">
<circle cx="22.2061" cy="21.7939" r="21.7939" fill="#2E6EFF"/>
<path d="M33.3663 16.3874C33.0984 15.3787 32.309 14.5842 31.3068 14.3146C29.4903 13.8247 22.2061 13.8247 22.2061 13.8247C22.2061 13.8247 14.9219 13.8247 13.1053 14.3146C12.1031 14.5843 11.3138 15.3787 11.0459 16.3874C10.5591 18.2158 10.5591 22.0305 10.5591 22.0305C10.5591 22.0305 10.5591 25.8452 11.0459 27.6736C11.3138 28.6823 12.1031 29.4437 13.1053 29.7133C14.9219 30.2032 22.2061 30.2032 22.2061 30.2032C22.2061 30.2032 29.4902 30.2032 31.3068 29.7133C32.309 29.4437 33.0984 28.6823 33.3663 27.6736C33.853 25.8452 33.853 22.0305 33.853 22.0305C33.853 22.0305 33.853 18.2158 33.3663 16.3874ZM19.8237 25.494V18.567L25.9119 22.0306L19.8237 25.494Z" fill="white"/>
</svg>
